<svg width="104" height="31" viewBox="0 0 104 31" fill="none" xmlns="http://www.w3.org/2000/svg">
    <path fill-rule="evenodd" clip-rule="evenodd" d="M75.4489 6.87902C75.074 6.61444 74.5585 6.48214 73.8556 6.48214C72.9652 6.48214 72.2154 6.87901 71.6061 7.67275C70.9969 8.46648 70.7158 9.52478 70.7158 10.8918V17.1534H68.6069V4.89469H70.7158V7.40815H70.7626C71.0438 6.52623 71.5124 5.8648 72.1216 5.37974C72.7309 4.89468 73.4338 4.67421 74.1836 4.67421C74.7459 4.67421 75.1208 4.71829 75.4489 4.85058V6.87902ZM60.8746 6.26166C59.5156 6.26166 58.4846 6.70263 57.688 7.54046C56.8913 8.37829 56.5164 9.56889 56.5164 11.0682C56.5164 12.5233 56.8913 13.6698 57.688 14.5077C58.4846 15.3455 59.5156 15.7864 60.8278 15.7864C62.1868 15.7864 63.2178 15.3896 63.9207 14.5517C64.6236 13.7139 64.9985 12.5674 64.9985 11.0682C64.9985 9.52479 64.6236 8.37829 63.9207 7.54046C63.2646 6.70263 62.2336 6.26166 60.8746 6.26166ZM60.6872 17.4621C58.7658 17.4621 57.2193 16.8888 56.0946 15.7423C54.9699 14.5958 54.3607 13.0966 54.3607 11.2004C54.3607 9.12792 54.9699 7.54045 56.1415 6.39395C57.3599 5.24744 58.9533 4.67421 60.9684 4.67421C62.8897 4.67421 64.4362 5.24746 65.514 6.34986C66.5919 7.45226 67.1542 9.03972 67.1542 11.024C67.1542 12.9643 66.5919 14.5518 65.4203 15.6983C64.2487 16.8448 62.7023 17.4621 60.6872 17.4621ZM53.3298 17.0652C52.8611 17.3298 52.2051 17.4621 51.4084 17.4621C49.1121 17.4621 47.9874 16.2715 47.9874 13.8903V6.65854H45.738V4.98286H47.9874V1.98433L50.0494 1.367V4.98286H53.3298V6.65854H50.0494V13.5816C50.0494 14.4194 50.19 14.9927 50.518 15.3455C50.7992 15.6982 51.3147 15.8746 51.9707 15.8746C52.4862 15.8746 52.9549 15.7424 53.3298 15.4778V17.0652ZM44.4259 16.5802C43.4418 17.1534 42.2233 17.418 40.8643 17.418C38.9898 17.418 37.4902 16.8448 36.3655 15.6983C35.2408 14.5518 34.6785 13.0966 34.6785 11.2886C34.6785 9.26021 35.2877 7.67275 36.5061 6.43806C37.7245 5.20336 39.3647 4.58601 41.4267 4.58601C42.5514 4.58601 43.5823 4.80648 44.4727 5.20334V7.23178C43.4886 6.61444 42.4576 6.26166 41.3798 6.26166C40.0677 6.26166 38.943 6.70261 38.0994 7.62863C37.2559 8.51056 36.8341 9.70115 36.8341 11.1563C36.8341 12.6115 37.2559 13.7139 38.0526 14.5517C38.8492 15.3896 39.9271 15.7864 41.2861 15.7864C42.4108 15.7864 43.4886 15.4337 44.4727 14.7281V16.5802H44.4259ZM7.40446 1.80796V15.3455H10.1225C12.5125 15.3455 14.387 14.7281 15.6991 13.5375C17.0113 12.3469 17.7142 10.6272 17.7142 8.42239C17.7142 4.01277 15.2305 1.85204 10.2631 1.85204H7.40446V1.80796ZM5.24878 17.1534V0H10.2631C16.6832 0 19.9168 2.77806 19.9168 8.37827C19.9168 11.024 19.0264 13.1407 17.2456 14.7722C15.4648 16.3597 13.0748 17.1975 10.0756 17.1975H5.24878V17.1534ZM76.3861 17.418C76.8079 17.418 77.1359 17.2857 77.4171 17.0211C77.6983 16.7566 77.8389 16.4479 77.8389 16.0951C77.8389 15.7423 77.6983 15.4337 77.4171 15.125C77.1359 14.8604 76.8079 14.7281 76.3861 14.7281C76.0112 14.7281 75.6832 14.8604 75.402 15.125C75.1208 15.3896 74.9803 15.6982 74.9803 16.0951C74.9803 16.4479 75.1208 16.7566 75.402 17.0211C75.6832 17.2857 76.0112 17.418 76.3861 17.418ZM92.132 17.1534H89.2265L83.4624 11.2886H83.4155V17.1534H81.3067V0H83.4155V10.4949H83.4624L88.9453 4.89469H91.6633L85.618 10.8036L92.132 17.1534ZM103.332 5.46794L95.6466 15.4778H103.285V17.1534H92.6006V16.5361L100.286 6.57034H93.3035V4.89469H103.332V5.46794Z" fill="white"/>
    <path fill-rule="evenodd" clip-rule="evenodd" d="M2.10882 4.10074C1.54646 4.10074 1.03097 3.92436 0.609208 3.52749C0.187445 3.17472 0 2.68966 0 2.11641C0 1.54316 0.187445 1.05812 0.609208 0.705352C1.03097 0.308486 1.4996 0.13208 2.10882 0.13208C2.71803 0.13208 3.23351 0.308486 3.60841 0.705352C4.03017 1.10222 4.21763 1.54316 4.21763 2.11641C4.21763 2.64556 4.03017 3.13063 3.60841 3.52749C3.18665 3.92436 2.71803 4.10074 2.10882 4.10074Z" fill="white"/>
    <path fill-rule="evenodd" clip-rule="evenodd" d="M24.6962 6.79036C20.666 7.80457 22.5405 15.8742 26.2426 15.8742H26.8518H27.133H27.9765C31.6787 15.8742 33.6 7.80457 29.523 6.79036C29.4293 7.05494 29.1481 7.23132 28.8669 7.23132H28.492C28.1171 7.23132 27.7891 6.92265 27.7891 6.56988V5.29108C27.7891 4.93831 28.1171 4.62964 28.492 4.62964H28.8669C29.195 4.62964 29.4761 4.85012 29.5699 5.1588C36.0837 5.59976 33.5063 17.5057 28.2577 17.5057H27.133H26.7581H25.9146C20.7128 17.5057 18.1354 5.59976 24.6024 5.1588C24.6493 4.85012 24.9773 4.62964 25.3054 4.62964H25.6803C26.0552 4.62964 26.3832 4.93831 26.3832 5.29108V6.56988C26.3832 6.92265 26.0552 7.23132 25.6803 7.23132H25.3054C25.0711 7.18723 24.7899 7.01084 24.6962 6.79036Z" fill="white"/>
    <path fill-rule="evenodd" clip-rule="evenodd" d="M1.21814 17.418C1.40559 19.2259 3.04578 20.6811 5.01401 20.6811H24.5088C26.4771 20.6811 28.1173 19.2259 28.3047 17.418H26.4302C26.2428 18.2558 25.4461 18.9172 24.5088 18.9172H5.06087C4.12362 18.9172 3.32696 18.2558 3.13951 17.418H1.21814Z" fill="white"/>
    <path d="M3.09264 4.89526H1.21814V17.4186H3.09264V4.89526Z" fill="white"/>
    <path fill-rule="evenodd" clip-rule="evenodd" d="M3.51442 29.4125C3.18638 29.4125 2.85834 29.3685 2.57717 29.2803C2.29599 29.1921 2.06168 29.0157 1.87423 28.8393C1.68678 28.6629 1.49933 28.3983 1.4056 28.0897C1.31188 27.781 1.21814 27.4282 1.21814 27.0313C1.21814 26.6345 1.26501 26.2817 1.4056 25.973C1.49933 25.6644 1.68678 25.4439 1.87423 25.2234C2.06168 25.0029 2.29599 24.8706 2.57717 24.7824C2.85834 24.6943 3.18638 24.606 3.51442 24.606C3.79559 24.606 4.0299 24.6502 4.31107 24.6942C4.54538 24.7824 4.77969 24.8266 4.96714 24.9588V25.8408H4.92029C4.87343 25.7967 4.77971 25.7526 4.68598 25.6644C4.59225 25.6203 4.49852 25.5321 4.35794 25.488C4.26421 25.4439 4.12363 25.3998 3.93618 25.3557C3.79559 25.3116 3.655 25.3116 3.46755 25.3116C3.04579 25.3116 2.71774 25.4439 2.43657 25.7526C2.15539 26.0612 2.06167 26.5022 2.06167 27.0313C2.06167 27.5605 2.20226 28.0015 2.43657 28.3101C2.67088 28.6188 3.04579 28.7511 3.46755 28.7511C3.74873 28.7511 3.98304 28.707 4.21735 28.5747C4.45167 28.4865 4.68598 28.3542 4.87343 28.1779H4.92029V29.0598C4.82657 29.1039 4.73284 29.148 4.59225 29.1921C4.45166 29.2362 4.35793 29.2802 4.26421 29.3243C4.12362 29.3684 3.98304 29.4125 3.88931 29.4125C3.84245 29.4125 3.70187 29.4125 3.51442 29.4125ZM7.82576 29.4125C7.0291 29.4125 6.46675 29.1921 5.99813 28.7952C5.57636 28.3983 5.34205 27.781 5.34205 27.0313C5.34205 26.2817 5.5295 25.7085 5.95126 25.2675C6.37302 24.8265 6.88851 24.606 7.59145 24.606C7.87262 24.606 8.15381 24.6502 8.38812 24.7384C8.62243 24.8266 8.80988 24.9588 8.99733 25.1352C9.18478 25.3116 9.32536 25.5321 9.41909 25.7967C9.51281 26.0612 9.55968 26.3699 9.55968 26.7227V27.1636H6.18557C6.18557 27.6928 6.32616 28.0897 6.60733 28.3983C6.88851 28.6629 7.31027 28.8393 7.7789 28.8393C7.96635 28.8393 8.1538 28.8393 8.29439 28.7952C8.48184 28.7511 8.62243 28.707 8.76301 28.6629C8.9036 28.6188 9.0442 28.5306 9.13792 28.4865C9.23165 28.4424 9.32537 28.3542 9.37224 28.3101H9.41909V29.148C9.32536 29.1921 9.18478 29.2362 9.04419 29.2803C8.9036 29.3244 8.76302 29.3684 8.6693 29.4125C8.52871 29.4566 8.38811 29.5007 8.24752 29.5007C8.20066 29.4125 8.01321 29.4125 7.82576 29.4125ZM8.76301 26.5022C8.76301 26.2817 8.71616 26.1053 8.6693 25.973C8.62243 25.8408 8.57556 25.7085 8.48184 25.5762C8.38811 25.4439 8.24753 25.3557 8.10694 25.3116C7.96635 25.2675 7.7789 25.2234 7.54458 25.2234C7.31027 25.2234 7.12283 25.2675 6.98224 25.3116C6.84165 25.3557 6.70107 25.4439 6.56048 25.5762C6.41989 25.7085 6.32617 25.8408 6.2793 25.973C6.23244 26.1053 6.18557 26.2817 6.13871 26.5022H8.76301ZM14.4803 26.8991C14.4803 27.6487 14.2928 28.2661 13.9179 28.707C13.543 29.148 13.0275 29.3685 12.4652 29.3685C12.2308 29.3685 11.9965 29.3244 11.8091 29.2803C11.6216 29.2362 11.4342 29.148 11.2467 29.0598V31H10.4032V24.7384H11.2467V25.2234C11.4342 25.047 11.6685 24.9147 11.9497 24.7824C12.184 24.6502 12.4652 24.606 12.7463 24.606C13.3087 24.606 13.7305 24.8265 14.0585 25.2234C14.3397 25.6203 14.4803 26.1935 14.4803 26.8991ZM13.6367 26.9873C13.6367 26.4581 13.543 26.0612 13.3556 25.7526C13.1681 25.4439 12.8869 25.3116 12.512 25.3116C12.2777 25.3116 12.0434 25.3557 11.8559 25.4439C11.6216 25.5321 11.4342 25.6644 11.2467 25.8408V28.4424C11.481 28.5306 11.6685 28.6188 11.8091 28.6629C11.9497 28.707 12.1371 28.707 12.3246 28.707C12.7463 28.707 13.0744 28.5747 13.3087 28.2661C13.543 27.9574 13.6367 27.5605 13.6367 26.9873ZM19.1665 27.9133C19.1665 28.1337 19.1196 28.3101 19.0259 28.4865C18.9322 28.6629 18.7916 28.7952 18.651 28.9275C18.4636 29.0598 18.2293 29.1921 18.0418 29.2361C17.8075 29.2802 17.5732 29.3243 17.2451 29.3243H15.3238V24.7384H17.1046C17.4795 24.7384 17.7138 24.7383 17.9012 24.7824C18.0887 24.7824 18.2293 24.8706 18.4167 24.9588C18.6042 25.047 18.6979 25.1793 18.7916 25.3116C18.8853 25.4439 18.9322 25.6203 18.9322 25.8408C18.9322 26.0612 18.8853 26.2376 18.7447 26.414C18.6042 26.5904 18.4636 26.7227 18.2293 26.8109V26.855C18.5104 26.8991 18.6979 27.0313 18.8853 27.2518C19.0728 27.3841 19.1665 27.6046 19.1665 27.9133ZM18.0887 25.8848C18.0887 25.7967 18.0887 25.7085 18.0418 25.6203C17.9949 25.5321 17.9481 25.488 17.8543 25.4439C17.7606 25.3998 17.62 25.3557 17.4795 25.3557C17.3389 25.3557 17.1514 25.3557 16.9171 25.3557H16.1204V26.6345H17.0577C17.2451 26.6345 17.3857 26.6345 17.4795 26.5904C17.5732 26.5904 17.6669 26.5463 17.7606 26.4581C17.8544 26.414 17.9481 26.3258 17.9481 26.2376C18.0418 26.1494 18.0887 26.0171 18.0887 25.8848ZM18.323 27.9133C18.323 27.7369 18.2761 27.6487 18.2293 27.5164C18.1824 27.4282 18.0887 27.34 17.9012 27.2518C17.8075 27.2077 17.7138 27.1636 17.5732 27.1636C17.4326 27.1636 17.292 27.1636 17.1046 27.1636H16.1204V28.6629H16.8234C17.1046 28.6629 17.3389 28.6629 17.5263 28.6188C17.6669 28.5747 17.8075 28.5747 17.9481 28.4865C18.0887 28.3983 18.1355 28.3542 18.2293 28.2219C18.323 28.1778 18.323 28.0896 18.323 27.9133ZM23.8996 29.3243H23.103V25.8848L20.8067 29.3243H20.0569V24.7384H20.8536V28.0897L23.103 24.7384H23.8528V29.3243H23.8996ZM27.0394 29.4125C26.7114 29.4125 26.3833 29.3685 26.1022 29.2803C25.821 29.1921 25.5867 29.0157 25.3992 28.8393C25.2118 28.6629 25.0243 28.3983 24.9306 28.0897C24.8369 27.781 24.7431 27.4282 24.7431 27.0313C24.7431 26.6345 24.79 26.2817 24.9306 25.973C25.0243 25.6644 25.2118 25.4439 25.3992 25.2234C25.5867 25.0029 25.821 24.8706 26.1022 24.7824C26.3833 24.6943 26.7114 24.606 27.0394 24.606C27.3206 24.606 27.5549 24.6502 27.8361 24.6942C28.0704 24.7824 28.3047 24.8266 28.4922 24.9588V25.8408H28.4453C28.3984 25.7967 28.3047 25.7526 28.211 25.6644C28.1172 25.6203 28.0235 25.5321 27.8829 25.488C27.7892 25.4439 27.6486 25.3998 27.4612 25.3557C27.3206 25.3116 27.18 25.3116 26.9925 25.3116C26.5708 25.3116 26.2428 25.4439 25.9616 25.7526C25.6804 26.0612 25.5867 26.5022 25.5867 27.0313C25.5867 27.5605 25.7273 28.0015 25.9616 28.3101C26.1959 28.6188 26.5708 28.7511 26.9925 28.7511C27.2737 28.7511 27.508 28.707 27.7423 28.5747C27.9767 28.4865 28.211 28.3542 28.3984 28.1779H28.4453V29.0598C28.3516 29.1039 28.2578 29.148 28.1173 29.1921C27.9767 29.2362 27.8829 29.2802 27.7892 29.3243C27.6486 29.3684 27.508 29.4125 27.4143 29.4125C27.3206 29.4125 27.18 29.4125 27.0394 29.4125ZM35.8496 29.3243H35.006V25.3998H32.8035V29.3243H31.96V24.7384H35.8027V29.3243H35.8496ZM41.0513 27.0313C41.0513 27.8251 40.8639 28.3983 40.4421 28.8393C40.0672 29.2803 39.5049 29.4566 38.8488 29.4566C38.1927 29.4566 37.6304 29.2361 37.2555 28.7952C36.8806 28.3542 36.6931 27.781 36.6931 27.0313C36.6931 26.2817 36.8805 25.6644 37.3023 25.2234C37.7241 24.7824 38.2396 24.606 38.8956 24.606C39.5517 24.606 40.0672 24.8265 40.489 25.2234C40.8639 25.6644 41.0513 26.2376 41.0513 27.0313ZM40.2078 27.0313C40.2078 26.4581 40.1141 26.0171 39.8797 25.7085C39.6454 25.3998 39.3174 25.2675 38.8956 25.2675C38.4739 25.2675 38.1458 25.3998 37.9115 25.7085C37.6772 26.0171 37.5835 26.4581 37.5835 27.0313C37.5835 27.6046 37.6772 28.0456 37.9115 28.3542C38.1458 28.6629 38.4739 28.7952 38.8956 28.7952C39.3174 28.7952 39.6454 28.6629 39.8797 28.3542C40.1141 28.0456 40.2078 27.6046 40.2078 27.0313ZM48.5493 29.3243H47.7058V25.3998H45.5033V29.3243H44.6597V24.7384H48.5025V29.3243H48.5493ZM53.7511 27.0313C53.7511 27.8251 53.5636 28.3983 53.1419 28.8393C52.767 29.2803 52.2046 29.4566 51.5485 29.4566C50.8924 29.4566 50.3301 29.2361 49.9552 28.7952C49.5803 28.3542 49.3929 27.781 49.3929 27.0313C49.3929 26.2817 49.5803 25.6644 50.0021 25.2234C50.4238 24.7824 50.9393 24.606 51.5954 24.606C52.2515 24.606 52.767 24.8265 53.1887 25.2234C53.5636 25.6644 53.7511 26.2376 53.7511 27.0313ZM52.9075 27.0313C52.9075 26.4581 52.8138 26.0171 52.5795 25.7085C52.3452 25.3998 52.0172 25.2675 51.5954 25.2675C51.1736 25.2675 50.8456 25.3998 50.6113 25.7085C50.377 26.0171 50.2832 26.4581 50.2832 27.0313C50.2832 27.6046 50.377 28.0456 50.6113 28.3542C50.8456 28.6629 51.1736 28.7952 51.5954 28.7952C52.0172 28.7952 52.3452 28.6629 52.5795 28.3542C52.8138 28.0456 52.9075 27.6046 52.9075 27.0313ZM58.4373 29.3243H57.6407V25.8848L55.3444 29.3243H54.5946V24.7384H55.3913V28.0897L57.6407 24.7384H58.3905V29.3243H58.4373ZM61.5771 29.4125C61.2491 29.4125 60.921 29.3685 60.6399 29.2803C60.3587 29.1921 60.1244 29.0157 59.9369 28.8393C59.7495 28.6629 59.562 28.3983 59.4683 28.0897C59.3746 27.781 59.2808 27.4282 59.2808 27.0313C59.2808 26.6345 59.3277 26.2817 59.4683 25.973C59.562 25.6644 59.7495 25.4439 59.9369 25.2234C60.1244 25.0029 60.3587 24.8706 60.6399 24.7824C60.921 24.6943 61.2491 24.606 61.5771 24.606C61.8583 24.606 62.0926 24.6502 62.3738 24.6942C62.6081 24.7824 62.8424 24.8266 63.0299 24.9588V25.8408H62.983C62.9361 25.7967 62.8424 25.7526 62.7487 25.6644C62.655 25.6203 62.5612 25.5321 62.4206 25.488C62.3269 25.4439 62.1863 25.3998 61.9989 25.3557C61.8583 25.3116 61.7177 25.3116 61.5303 25.3116C61.1085 25.3116 60.7804 25.4439 60.4993 25.7526C60.2181 26.0612 60.1244 26.5022 60.1244 27.0313C60.1244 27.5605 60.265 28.0015 60.4993 28.3101C60.7336 28.6188 61.1085 28.7511 61.5303 28.7511C61.8114 28.7511 62.0457 28.707 62.2801 28.5747C62.5144 28.4865 62.7487 28.3542 62.9361 28.1779H62.983V29.0598C62.8893 29.1039 62.7955 29.148 62.6549 29.1921C62.5144 29.2362 62.4206 29.2802 62.3269 29.3243C62.1863 29.3684 62.0457 29.4125 61.952 29.4125C61.9051 29.4125 61.7646 29.4125 61.5771 29.4125ZM67.6692 29.3243H66.6383L64.9512 27.2077H64.5294V29.3243H63.6859V24.7384H64.5294V26.7227C64.7638 26.7227 64.9044 26.6786 65.0918 26.5904C65.2324 26.5022 65.373 26.3699 65.4667 26.1053C65.5136 26.0171 65.5136 25.973 65.5604 25.8848C65.6073 25.7967 65.6073 25.7085 65.6542 25.6644C65.7947 25.3116 65.9822 25.0911 66.1696 24.9588C66.404 24.8266 66.6851 24.7384 67.06 24.7384H67.2943V25.3998H67.1069C66.8726 25.3998 66.6851 25.4439 66.5914 25.5321C66.4977 25.6203 66.3571 25.7967 66.3102 26.0171C66.2165 26.2376 66.1228 26.4581 66.0291 26.5904C65.9353 26.7227 65.7947 26.8109 65.6542 26.8991L67.6692 29.3243ZM72.0743 24.7384H71.2308L69.9186 28.1337L68.6065 24.7384H67.7161L69.4969 29.1039L68.6065 31H69.4969L72.0743 24.7384ZM79.2912 27.9133C79.2912 28.1337 79.2443 28.3101 79.1506 28.4865C79.0568 28.6629 78.9163 28.7952 78.7757 28.9275C78.5882 29.0598 78.3539 29.1921 78.1665 29.2361C77.9321 29.2802 77.6978 29.3243 77.3698 29.3243H75.4484V24.7384H77.2292C77.6041 24.7384 77.8384 24.7383 78.0259 24.7824C78.2133 24.7824 78.3539 24.8706 78.5414 24.9588C78.7288 25.047 78.8225 25.1793 78.9163 25.3116C79.01 25.4439 79.0568 25.6203 79.0568 25.8408C79.0568 26.0612 79.01 26.2376 78.8694 26.414C78.7288 26.5904 78.5882 26.7227 78.3539 26.8109V26.855C78.6351 26.8991 78.8225 27.0313 79.01 27.2518C79.1974 27.3841 79.2912 27.6046 79.2912 27.9133ZM78.2133 25.8848C78.2133 25.7967 78.2133 25.7085 78.1665 25.6203C78.1196 25.5321 78.0727 25.488 77.979 25.4439C77.8853 25.3998 77.7447 25.3557 77.6041 25.3557C77.4635 25.3557 77.2761 25.3557 77.0418 25.3557H76.2451V26.6345H77.1823C77.3698 26.6345 77.5104 26.6345 77.6041 26.5904C77.6978 26.5904 77.7915 26.5463 77.8853 26.4581C77.979 26.414 78.0727 26.3258 78.0727 26.2376C78.1665 26.1494 78.2133 26.0171 78.2133 25.8848ZM78.4476 27.9133C78.4476 27.7369 78.4008 27.6487 78.3539 27.5164C78.307 27.4282 78.2133 27.34 78.0259 27.2518C77.9321 27.2077 77.8384 27.1636 77.6978 27.1636C77.5572 27.1636 77.4167 27.1636 77.2292 27.1636H76.2451V28.6629H76.948C77.2292 28.6629 77.4635 28.6629 77.651 28.6188C77.7915 28.5747 77.9321 28.5747 78.0727 28.4865C78.2133 28.3983 78.2602 28.3542 78.3539 28.2219C78.4008 28.1778 78.4476 28.0896 78.4476 27.9133ZM84.2586 26.8991C84.2586 27.6487 84.0711 28.2661 83.6962 28.707C83.3213 29.148 82.8058 29.3685 82.2435 29.3685C82.0092 29.3685 81.7749 29.3244 81.5874 29.2803C81.4 29.2362 81.2125 29.148 81.0251 29.0598V31H80.1815V24.7384H81.0251V25.2234C81.2125 25.047 81.4468 24.9147 81.728 24.7824C81.9623 24.6502 82.2435 24.606 82.5247 24.606C83.087 24.606 83.5088 24.8265 83.8368 25.2234C84.0711 25.6203 84.2586 26.1935 84.2586 26.8991ZM83.4151 26.9873C83.4151 26.4581 83.3213 26.0612 83.1339 25.7526C82.9464 25.4439 82.6653 25.3116 82.2904 25.3116C82.056 25.3116 81.8217 25.3557 81.6343 25.4439C81.4 25.5321 81.2125 25.6644 81.0251 25.8408V28.4424C81.2594 28.5306 81.4468 28.6188 81.5874 28.6629C81.728 28.707 81.9155 28.707 82.1029 28.707C82.5247 28.707 82.8527 28.5747 83.087 28.2661C83.2745 27.9574 83.4151 27.5605 83.4151 26.9873ZM87.8201 28.1779V26.8991C87.6327 26.8991 87.3984 26.9432 87.0703 26.9873C86.7892 27.0313 86.508 27.0754 86.3674 27.1195C86.1331 27.1636 85.9456 27.2959 85.8051 27.4282C85.6645 27.5605 85.5707 27.7369 85.5707 27.9574C85.5707 28.222 85.6645 28.3983 85.8051 28.5747C85.9456 28.707 86.18 28.7952 86.508 28.7952C86.7892 28.7952 87.0235 28.7511 87.2109 28.6188C87.4452 28.4424 87.6327 28.3101 87.8201 28.1779ZM87.8201 28.8393C87.7733 28.8834 87.6796 28.9716 87.539 29.0157C87.4452 29.1039 87.3047 29.148 87.2109 29.2361C87.0703 29.3243 86.9297 29.3684 86.7892 29.4125C86.6486 29.4566 86.4611 29.4566 86.2268 29.4566C86.0394 29.4566 85.8519 29.4126 85.6645 29.3685C85.477 29.2803 85.3364 29.1921 85.1958 29.0598C85.0553 28.9275 84.9615 28.7952 84.8678 28.5747C84.7741 28.3983 84.7272 28.1778 84.7272 28.0015C84.7272 27.6928 84.8209 27.4282 84.9615 27.2077C85.1021 26.9873 85.3364 26.8109 85.6176 26.6786C85.8988 26.5463 86.2268 26.4581 86.6017 26.414C86.9766 26.3699 87.3984 26.3258 87.8201 26.3258V26.1935C87.8201 26.0171 87.7733 25.8849 87.7264 25.7526C87.6796 25.6203 87.5858 25.5762 87.4921 25.488C87.3984 25.4439 87.2578 25.3998 87.1172 25.3557C86.9766 25.3557 86.7892 25.3116 86.6486 25.3116C86.4611 25.3116 86.2268 25.3557 85.9925 25.3998C85.7582 25.4439 85.477 25.5321 85.2427 25.6203H85.1958V24.8265C85.3364 24.7824 85.5707 24.7383 85.8519 24.6942C86.1331 24.6502 86.4143 24.606 86.6954 24.606C87.0235 24.606 87.3046 24.6502 87.539 24.6942C87.7733 24.7383 87.9607 24.8266 88.1482 24.9588C88.3356 25.0911 88.4762 25.2675 88.5231 25.4439C88.6168 25.6644 88.6637 25.8849 88.6637 26.1935V29.3243H87.867V28.8393H87.8201ZM93.4436 29.3243H92.6001V27.5164C92.3658 27.6046 92.0846 27.6487 91.8503 27.6928C91.616 27.7369 91.3817 27.7369 91.1474 27.7369C90.9599 27.7369 90.7256 27.6928 90.5382 27.6487C90.3507 27.6046 90.1633 27.5164 90.0227 27.3841C89.8821 27.2518 89.7884 27.1196 89.6946 26.9432C89.6009 26.7668 89.6009 26.5463 89.6009 26.3258V24.6942H90.4444V25.9289C90.4444 26.1494 90.4444 26.2817 90.4913 26.414C90.4913 26.5463 90.5382 26.6345 90.6319 26.7668C90.6788 26.855 90.8193 26.9432 90.9131 26.9873C91.0537 27.0313 91.2411 27.0755 91.4286 27.0755C91.616 27.0755 91.8035 27.0754 92.0378 27.0313C92.2721 26.9872 92.4595 26.9432 92.6001 26.8991V24.6942H93.4436V29.3243ZM96.7709 29.4125C95.9742 29.4125 95.4119 29.1921 94.9433 28.7952C94.5215 28.3983 94.2872 27.781 94.2872 27.0313C94.2872 26.2817 94.4746 25.7085 94.8964 25.2675C95.3181 24.8265 95.8336 24.606 96.5366 24.606C96.8177 24.606 97.0989 24.6502 97.3332 24.7384C97.5676 24.8266 97.755 24.9588 97.9425 25.1352C98.1299 25.3116 98.2705 25.5321 98.3642 25.7967C98.4579 26.0612 98.5048 26.3699 98.5048 26.7227V27.1636H95.1307C95.1307 27.6928 95.2713 28.0897 95.5525 28.3983C95.8336 28.6629 96.2554 28.8393 96.724 28.8393C96.9115 28.8393 97.0989 28.8393 97.2395 28.7952C97.427 28.7511 97.5676 28.707 97.7081 28.6629C97.8487 28.6188 97.9893 28.5306 98.083 28.4865C98.1768 28.4424 98.2705 28.3542 98.3174 28.3101H98.3642V29.148C98.2705 29.1921 98.1299 29.2362 97.9893 29.2803C97.8487 29.3244 97.7081 29.3684 97.6144 29.4125C97.4738 29.4566 97.3332 29.5007 97.1927 29.5007C97.1458 29.4125 96.9583 29.4125 96.7709 29.4125ZM97.755 26.5022C97.755 26.2817 97.7081 26.1053 97.6613 25.973C97.6144 25.8408 97.5676 25.7085 97.4738 25.5762C97.3801 25.4439 97.2395 25.3557 97.0989 25.3116C96.9583 25.2675 96.7709 25.2234 96.5366 25.2234C96.3023 25.2234 96.1148 25.2675 95.9742 25.3116C95.8336 25.3557 95.6931 25.4439 95.5525 25.5762C95.4119 25.7085 95.3181 25.8408 95.2713 25.973C95.2244 26.1053 95.1776 26.2817 95.1307 26.5022H97.755ZM103.238 29.3243H102.441V25.8848L100.145 29.3243H99.3952V24.7384H100.192V28.0897L102.441 24.7384H103.191V29.3243H103.238ZM102.863 22.5776C102.863 22.7981 102.816 23.0186 102.769 23.2391C102.722 23.4155 102.629 23.5918 102.488 23.7241C102.348 23.8564 102.207 23.9887 102.019 24.0328C101.832 24.121 101.645 24.121 101.363 24.121C101.129 24.121 100.895 24.0769 100.754 23.9887C100.567 23.9005 100.426 23.8123 100.286 23.68C100.145 23.5478 100.098 23.3714 100.004 23.195C99.9575 23.0186 99.9107 22.7981 99.9107 22.5776H100.614C100.614 22.9304 100.66 23.195 100.801 23.3714C100.942 23.5477 101.129 23.636 101.363 23.636C101.598 23.636 101.785 23.5478 101.879 23.4155C102.019 23.2391 102.066 22.9745 102.066 22.6217H102.863V22.5776Z" fill="white"/>
</svg>
